<svg width="24" height="24" viewBox="0 0 24 24" fill="none" xmlns="http://www.w3.org/2000/svg">
<path d="M10.4415 2.12203C12.6331 1.77623 14.8776 2.16957 16.8214 3.23921C18.7652 4.30892 20.2982 5.99479 21.1788 8.03121C22.0594 10.0677 22.2377 12.3393 21.6857 14.4882C21.1336 16.6372 19.8822 18.5414 18.129 19.9013C16.376 21.2611 14.2207 21.9995 12.0021 22L12.0011 21.999C10.2686 22.0013 8.56898 21.5515 7.0675 20.6982L3.3175 21.9482C2.95818 22.068 2.56189 21.9748 2.29407 21.707C2.02644 21.4392 1.93312 21.0428 2.05285 20.6835L3.30285 16.9316C2.29254 15.1498 1.84988 13.0975 2.04504 11.0507C2.25572 8.84207 3.19506 6.76569 4.71496 5.14937C6.23495 3.53304 8.24989 2.4679 10.4415 2.12203Z" fill="#6287F2"/>
</svg>
